<svg xmlns="http://www.w3.org/2000/svg" viewBox="0 0 512 512" role="img" aria-labelledby="title desc">
  <title id="title">py-CytoTRACE sticker</title>
  <desc id="desc">OmicVerse repository hex sticker for py-CytoTRACE.</desc>
  <defs>
    <linearGradient id="bg" x1="112" y1="90" x2="398" y2="430" gradientUnits="userSpaceOnUse">
      <stop offset="0" stop-color="#050706"/>
      <stop offset=".58" stop-color="#020403"/>
      <stop offset="1" stop-color="#000000"/>
    </linearGradient>
  </defs>
  <polygon points="256,34 450,146 450,368 256,480 62,368 62,146" fill="#000000" opacity=".34"/>
  <polygon points="256,22 458,139 458,373 256,490 54,373 54,139" fill="url(#bg)" stroke="#0B0F0A" stroke-width="19" stroke-linejoin="round"/>
  <polygon points="256,22 458,139 458,373 256,490 54,373 54,139" fill="none" stroke="#E8FFE0" stroke-width="12" stroke-linejoin="round"/>
  <g opacity=".22" stroke="#3FD36B" stroke-width="2.2">
    <path d="M112 166h288M100 222h312M100 278h312M112 334h288"/>
    <path d="M152 126v236M204 104v274M256 96v286M308 104v274M360 126v236"/>
  </g>
  <g id="motif">
    <path d="M256 138v206" stroke="#FFFFFF" stroke-width="7" stroke-linecap="round"/>
    <path d="M256 188c-52-42-96-26-116 22 58 18 96 8 116-22z" fill="#32D74B" opacity=".8" stroke="#FFFFFF" stroke-width="5"/>
    <path d="M256 250c54-38 96-20 116 26-58 16-96 2-116-26z" fill="#00C7BE" opacity=".8" stroke="#FFFFFF" stroke-width="5"/>
    <circle cx="256" cy="136" r="18" fill="#FFD60A" stroke="#FFFFFF" stroke-width="5"/>
    <path d="M154 360h204" stroke="#FF6961" stroke-width="8" stroke-linecap="round"/>
  </g>
  <path id="label" d="M306.14,381.66 L311.31,390.61 L305.86,393.76 L292.27,370.22 L297.72,367.08 L299.16,369.57 Q299.43,367.43 300.39,365.93 Q301.35,364.44 303.13,363.41 Q306.28,361.59 309.75,362.92 Q313.22,364.26 315.50,368.20 Q317.77,372.14 317.20,375.82 Q316.62,379.49 313.47,381.31 Q311.69,382.34 309.91,382.42 Q308.13,382.50 306.14,381.66 Z M303.39,368.53 Q301.64,369.54 301.44,371.37 Q301.25,373.20 302.65,375.62 Q304.05,378.04 305.72,378.79 Q307.41,379.53 309.16,378.52 Q310.90,377.51 311.09,375.70 Q311.27,373.89 309.87,371.45 Q308.46,369.01 306.80,368.27 Q305.14,367.52 303.39,368.53 Z M312.35,358.63 L317.80,355.48 L329.06,364.41 L326.28,350.59 L331.73,347.44 L335.33,370.25 Q335.90,373.72 335.11,375.68 Q334.33,377.64 331.97,379.01 L328.82,380.83 L326.75,377.25 L328.46,376.27 Q329.84,375.47 330.22,374.66 Q330.60,373.86 330.29,372.51 L330.17,371.95 L312.35,358.63 Z M337.37,352.00 L346.92,346.48 L349.48,350.91 L339.92,356.43 L337.37,352.00 Z M375.24,343.39 Q374.11,345.16 372.61,346.59 Q371.10,348.03 369.20,349.13 Q363.52,352.41 358.37,351.15 Q353.22,349.89 350.08,344.46 Q346.93,339.01 348.42,333.92 Q349.90,328.83 355.58,325.55 Q357.49,324.45 359.49,323.87 Q361.48,323.28 363.58,323.19 L366.29,327.89 Q364.02,327.72 362.14,328.12 Q360.26,328.52 358.51,329.53 Q355.37,331.34 354.74,334.39 Q354.10,337.43 356.14,340.96 Q358.17,344.48 361.13,345.45 Q364.08,346.42 367.22,344.61 Q368.97,343.60 370.25,342.17 Q371.54,340.74 372.53,338.68 L375.24,343.39 Z M368.49,326.22 L373.94,323.07 L385.21,331.99 L382.42,318.17 L387.87,315.03 L391.47,337.83 Q392.04,341.30 391.25,343.27 Q390.47,345.23 388.11,346.59 L384.96,348.41 L382.90,344.84 L384.60,343.85 Q385.99,343.05 386.36,342.25 Q386.74,341.44 386.43,340.10 L386.31,339.53 L368.49,326.22 Z M394.21,304.91 L397.00,309.76 L402.62,306.51 L404.87,310.41 L399.25,313.65 L403.43,320.88 Q404.11,322.07 404.83,322.22 Q405.54,322.36 406.94,321.55 L409.75,319.94 L412.00,323.83 L407.32,326.53 Q404.09,328.40 401.97,327.83 Q399.85,327.26 397.98,324.03 L393.81,316.80 L391.09,318.36 L388.84,314.47 L391.56,312.90 L388.76,308.06 L394.21,304.91 Z M416.08,303.39 Q414.27,304.44 414.07,306.29 Q413.87,308.14 415.29,310.59 Q416.70,313.04 418.41,313.79 Q420.11,314.55 421.92,313.50 Q423.70,312.47 423.89,310.63 Q424.08,308.78 422.67,306.32 Q421.25,303.87 419.56,303.12 Q417.87,302.36 416.08,303.39 Z M413.83,299.49 Q418.23,296.95 422.08,297.90 Q425.92,298.85 428.35,303.05 Q430.77,307.25 429.67,311.06 Q428.57,314.86 424.17,317.40 Q419.76,319.94 415.90,319.01 Q412.03,318.07 409.61,313.87 Q407.18,309.67 408.30,305.86 Q409.42,302.04 413.83,299.49 Z" fill="#FFFFFF"/>
</svg>
